<?xml version="1.0" encoding="utf-8" standalone="no"?>
<!DOCTYPE svg PUBLIC "-//W3C//DTD SVG 1.1//EN"
  "http://www.w3.org/Graphics/SVG/1.1/DTD/svg11.dtd">
<!-- Created with matplotlib (http://matplotlib.org/) -->
<svg height="441pt" version="1.1" viewBox="0 0 585 441" width="585pt" xmlns="http://www.w3.org/2000/svg" xmlns:xlink="http://www.w3.org/1999/xlink">
 <defs>
  <style type="text/css">
*{stroke-linecap:butt;stroke-linejoin:round;}
  </style>
 </defs>
 <g id="figure_1">
  <g id="patch_1">
   <path d="
M0 441
L585 441
L585 0
L0 0
z
" style="fill:#ffffff;"/>
  </g>
  <g id="axes_1">
   <g id="patch_2">
    <path d="
M73.125 396.9
L526.5 396.9
L526.5 44.1
L73.125 44.1
z
" style="fill:#ffffff;"/>
   </g>
   <g id="line2d_1">
    <path clip-path="url(#p5873ec822d)" d="
M78.3447 164.228
L82.786 233.261
L87.2273 285.617
L91.6687 321.294
L96.11 340.295
L100.551 342.617
L104.993 328.262
L109.434 297.229
L113.875 249.519
L118.317 185.131
L122.758 164.228
L127.199 164.228
L131.641 119.577
L136.082 123.514
L140.524 114.345
L144.965 112.438
L149.406 108.672
L153.848 105.551
L158.289 103.11
L162.73 101.379
L167.172 100.377
L171.613 100.116
L176.054 100.599
L180.496 101.821
L184.937 103.766
L189.378 106.413
L193.82 109.731
L198.261 113.682
L202.702 118.219
L207.144 123.29
L211.585 128.836
L216.026 134.793
L220.468 141.091
L224.909 147.658
L229.35 154.417
L233.792 161.29
L238.233 168.197
L242.674 175.058
L247.116 181.793
L251.557 188.324
L255.999 194.576
L260.44 200.476
L264.881 205.955
L269.323 210.95
L273.764 215.402
L278.205 219.261
L282.647 222.481
L287.088 225.025
L291.529 226.864
L295.971 227.976
L300.412 228.349
L304.853 227.976
L309.295 226.864
L313.736 225.025
L318.177 222.481
L322.619 219.261
L327.06 215.402
L331.501 210.95
L335.943 205.955
L340.384 200.476
L344.825 194.576
L349.267 188.324
L353.708 181.793
L358.15 175.058
L362.591 168.197
L367.032 161.29
L371.474 154.417
L375.915 147.658
L380.356 141.091
L384.798 134.793
L389.239 128.836
L393.68 123.29
L398.122 118.219
L402.563 113.682
L407.004 109.731
L411.446 106.413
L415.887 103.766
L420.328 101.821
L424.77 100.599
L429.211 100.116
L433.652 100.377
L438.094 101.379
L442.535 103.11
L446.976 105.551
L451.418 108.672
L455.859 112.438
L460.301 114.345
L464.742 123.514
L469.183 119.577
L473.625 164.228
L478.066 164.228
L482.507 189.311
L486.949 266.577
L491.39 323.83
L495.831 361.069
L500.273 378.295
L504.714 375.508
L509.155 352.708
L513.597 309.894
L518.038 247.068
L522.479 164.228" style="fill:none;stroke:#0000ff;stroke-linecap:square;"/>
   </g>
   <g id="line2d_2">
    <defs>
     <path d="
M0 3
C0.795609 3 1.55874 2.6839 2.12132 2.12132
C2.6839 1.55874 3 0.795609 3 0
C3 -0.795609 2.6839 -1.55874 2.12132 -2.12132
C1.55874 -2.6839 0.795609 -3 0 -3
C-0.795609 -3 -1.55874 -2.6839 -2.12132 -2.12132
C-2.6839 -1.55874 -3 -0.795609 -3 0
C-3 0.795609 -2.6839 1.55874 -2.12132 2.12132
C-1.55874 2.6839 -0.795609 3 0 3
z
" id="mbbe02196b1" style="stroke:#000000;stroke-width:0.5;"/>
    </defs>
    <g clip-path="url(#p5873ec822d)">
     <use style="fill:#008000;stroke:#000000;stroke-width:0.5;" x="78.3446509625" xlink:href="#mbbe02196b1" y="164.22797095"/>
     <use style="fill:#008000;stroke:#000000;stroke-width:0.5;" x="119.553780797" xlink:href="#mbbe02196b1" y="164.22797095"/>
     <use style="fill:#008000;stroke:#000000;stroke-width:0.5;" x="119.553780797" xlink:href="#mbbe02196b1" y="164.22797095"/>
     <use style="fill:#008000;stroke:#000000;stroke-width:0.5;" x="127.795606764" xlink:href="#mbbe02196b1" y="164.22797095"/>
     <use style="fill:#008000;stroke:#000000;stroke-width:0.5;" x="127.795606764" xlink:href="#mbbe02196b1" y="164.22797095"/>
     <use style="fill:#008000;stroke:#000000;stroke-width:0.5;" x="134.987956739" xlink:href="#mbbe02196b1" y="123.012420211"/>
     <use style="fill:#008000;stroke:#000000;stroke-width:0.5;" x="142.180306714" xlink:href="#mbbe02196b1" y="115.109190286"/>
     <use style="fill:#008000;stroke:#000000;stroke-width:0.5;" x="142.180306714" xlink:href="#mbbe02196b1" y="115.109190286"/>
     <use style="fill:#008000;stroke:#000000;stroke-width:0.5;" x="149.372656689" xlink:href="#mbbe02196b1" y="108.698409657"/>
     <use style="fill:#008000;stroke:#000000;stroke-width:0.5;" x="156.565006664" xlink:href="#mbbe02196b1" y="103.974866648"/>
     <use style="fill:#008000;stroke:#000000;stroke-width:0.5;" x="156.565006664" xlink:href="#mbbe02196b1" y="103.974866648"/>
     <use style="fill:#008000;stroke:#000000;stroke-width:0.5;" x="163.757356639" xlink:href="#mbbe02196b1" y="101.082083723"/>
     <use style="fill:#008000;stroke:#000000;stroke-width:0.5;" x="170.949706614" xlink:href="#mbbe02196b1" y="100.107956629"/>
     <use style="fill:#008000;stroke:#000000;stroke-width:0.5;" x="170.949706614" xlink:href="#mbbe02196b1" y="100.107956629"/>
     <use style="fill:#008000;stroke:#000000;stroke-width:0.5;" x="178.142056589" xlink:href="#mbbe02196b1" y="101.082083723"/>
     <use style="fill:#008000;stroke:#000000;stroke-width:0.5;" x="185.334406564" xlink:href="#mbbe02196b1" y="103.974866648"/>
     <use style="fill:#008000;stroke:#000000;stroke-width:0.5;" x="185.334406564" xlink:href="#mbbe02196b1" y="103.974866648"/>
     <use style="fill:#008000;stroke:#000000;stroke-width:0.5;" x="192.526756539" xlink:href="#mbbe02196b1" y="108.698409657"/>
     <use style="fill:#008000;stroke:#000000;stroke-width:0.5;" x="199.719106514" xlink:href="#mbbe02196b1" y="115.109190286"/>
     <use style="fill:#008000;stroke:#000000;stroke-width:0.5;" x="199.719106514" xlink:href="#mbbe02196b1" y="115.109190286"/>
     <use style="fill:#008000;stroke:#000000;stroke-width:0.5;" x="206.911456489" xlink:href="#mbbe02196b1" y="123.012420211"/>
     <use style="fill:#008000;stroke:#000000;stroke-width:0.5;" x="214.103806464" xlink:href="#mbbe02196b1" y="132.167963789"/>
     <use style="fill:#008000;stroke:#000000;stroke-width:0.5;" x="214.103806464" xlink:href="#mbbe02196b1" y="132.167963789"/>
     <use style="fill:#008000;stroke:#000000;stroke-width:0.5;" x="221.296156439" xlink:href="#mbbe02196b1" y="142.297634462"/>
     <use style="fill:#008000;stroke:#000000;stroke-width:0.5;" x="228.488506414" xlink:href="#mbbe02196b1" y="153.093647311"/>
     <use style="fill:#008000;stroke:#000000;stroke-width:0.5;" x="228.488506414" xlink:href="#mbbe02196b1" y="153.093647311"/>
     <use style="fill:#008000;stroke:#000000;stroke-width:0.5;" x="235.680856388" xlink:href="#mbbe02196b1" y="164.22797095"/>
     <use style="fill:#008000;stroke:#000000;stroke-width:0.5;" x="242.873206363" xlink:href="#mbbe02196b1" y="175.362294588"/>
     <use style="fill:#008000;stroke:#000000;stroke-width:0.5;" x="242.873206363" xlink:href="#mbbe02196b1" y="175.362294588"/>
     <use style="fill:#008000;stroke:#000000;stroke-width:0.5;" x="250.065556338" xlink:href="#mbbe02196b1" y="186.158307438"/>
     <use style="fill:#008000;stroke:#000000;stroke-width:0.5;" x="257.257906313" xlink:href="#mbbe02196b1" y="196.28797811"/>
     <use style="fill:#008000;stroke:#000000;stroke-width:0.5;" x="257.257906313" xlink:href="#mbbe02196b1" y="196.28797811"/>
     <use style="fill:#008000;stroke:#000000;stroke-width:0.5;" x="264.450256288" xlink:href="#mbbe02196b1" y="205.443521688"/>
     <use style="fill:#008000;stroke:#000000;stroke-width:0.5;" x="271.642606263" xlink:href="#mbbe02196b1" y="213.346751613"/>
     <use style="fill:#008000;stroke:#000000;stroke-width:0.5;" x="271.642606263" xlink:href="#mbbe02196b1" y="213.346751613"/>
     <use style="fill:#008000;stroke:#000000;stroke-width:0.5;" x="278.834956238" xlink:href="#mbbe02196b1" y="219.757532242"/>
     <use style="fill:#008000;stroke:#000000;stroke-width:0.5;" x="286.027306213" xlink:href="#mbbe02196b1" y="224.481075251"/>
     <use style="fill:#008000;stroke:#000000;stroke-width:0.5;" x="286.027306213" xlink:href="#mbbe02196b1" y="224.481075251"/>
     <use style="fill:#008000;stroke:#000000;stroke-width:0.5;" x="293.219656188" xlink:href="#mbbe02196b1" y="227.373858176"/>
     <use style="fill:#008000;stroke:#000000;stroke-width:0.5;" x="300.412006163" xlink:href="#mbbe02196b1" y="228.348984054"/>
     <use style="fill:#008000;stroke:#000000;stroke-width:0.5;" x="300.412006163" xlink:href="#mbbe02196b1" y="228.348984054"/>
     <use style="fill:#008000;stroke:#000000;stroke-width:0.5;" x="307.604356138" xlink:href="#mbbe02196b1" y="227.373858176"/>
     <use style="fill:#008000;stroke:#000000;stroke-width:0.5;" x="314.796706113" xlink:href="#mbbe02196b1" y="224.481075251"/>
     <use style="fill:#008000;stroke:#000000;stroke-width:0.5;" x="314.796706113" xlink:href="#mbbe02196b1" y="224.481075251"/>
     <use style="fill:#008000;stroke:#000000;stroke-width:0.5;" x="321.989056088" xlink:href="#mbbe02196b1" y="219.757532242"/>
     <use style="fill:#008000;stroke:#000000;stroke-width:0.5;" x="329.181406063" xlink:href="#mbbe02196b1" y="213.346751613"/>
     <use style="fill:#008000;stroke:#000000;stroke-width:0.5;" x="329.181406063" xlink:href="#mbbe02196b1" y="213.346751613"/>
     <use style="fill:#008000;stroke:#000000;stroke-width:0.5;" x="336.373756038" xlink:href="#mbbe02196b1" y="205.443521688"/>
     <use style="fill:#008000;stroke:#000000;stroke-width:0.5;" x="343.566106013" xlink:href="#mbbe02196b1" y="196.28797811"/>
     <use style="fill:#008000;stroke:#000000;stroke-width:0.5;" x="343.566106013" xlink:href="#mbbe02196b1" y="196.28797811"/>
     <use style="fill:#008000;stroke:#000000;stroke-width:0.5;" x="350.758455988" xlink:href="#mbbe02196b1" y="186.158307438"/>
     <use style="fill:#008000;stroke:#000000;stroke-width:0.5;" x="357.950805963" xlink:href="#mbbe02196b1" y="175.362294588"/>
     <use style="fill:#008000;stroke:#000000;stroke-width:0.5;" x="357.950805963" xlink:href="#mbbe02196b1" y="175.362294588"/>
     <use style="fill:#008000;stroke:#000000;stroke-width:0.5;" x="365.143155938" xlink:href="#mbbe02196b1" y="164.22797095"/>
     <use style="fill:#008000;stroke:#000000;stroke-width:0.5;" x="372.335505913" xlink:href="#mbbe02196b1" y="153.093647311"/>
     <use style="fill:#008000;stroke:#000000;stroke-width:0.5;" x="372.335505913" xlink:href="#mbbe02196b1" y="153.093647311"/>
     <use style="fill:#008000;stroke:#000000;stroke-width:0.5;" x="379.527855888" xlink:href="#mbbe02196b1" y="142.297634462"/>
     <use style="fill:#008000;stroke:#000000;stroke-width:0.5;" x="386.720205863" xlink:href="#mbbe02196b1" y="132.167963789"/>
     <use style="fill:#008000;stroke:#000000;stroke-width:0.5;" x="386.720205863" xlink:href="#mbbe02196b1" y="132.167963789"/>
     <use style="fill:#008000;stroke:#000000;stroke-width:0.5;" x="393.912555838" xlink:href="#mbbe02196b1" y="123.012420211"/>
     <use style="fill:#008000;stroke:#000000;stroke-width:0.5;" x="401.104905813" xlink:href="#mbbe02196b1" y="115.109190286"/>
     <use style="fill:#008000;stroke:#000000;stroke-width:0.5;" x="401.104905813" xlink:href="#mbbe02196b1" y="115.109190286"/>
     <use style="fill:#008000;stroke:#000000;stroke-width:0.5;" x="408.297255788" xlink:href="#mbbe02196b1" y="108.698409657"/>
     <use style="fill:#008000;stroke:#000000;stroke-width:0.5;" x="415.489605763" xlink:href="#mbbe02196b1" y="103.974866648"/>
     <use style="fill:#008000;stroke:#000000;stroke-width:0.5;" x="415.489605763" xlink:href="#mbbe02196b1" y="103.974866648"/>
     <use style="fill:#008000;stroke:#000000;stroke-width:0.5;" x="422.681955738" xlink:href="#mbbe02196b1" y="101.082083723"/>
     <use style="fill:#008000;stroke:#000000;stroke-width:0.5;" x="429.874305712" xlink:href="#mbbe02196b1" y="100.107956629"/>
     <use style="fill:#008000;stroke:#000000;stroke-width:0.5;" x="429.874305712" xlink:href="#mbbe02196b1" y="100.107956629"/>
     <use style="fill:#008000;stroke:#000000;stroke-width:0.5;" x="437.066655687" xlink:href="#mbbe02196b1" y="101.082083723"/>
     <use style="fill:#008000;stroke:#000000;stroke-width:0.5;" x="444.259005662" xlink:href="#mbbe02196b1" y="103.974866648"/>
     <use style="fill:#008000;stroke:#000000;stroke-width:0.5;" x="444.259005662" xlink:href="#mbbe02196b1" y="103.974866648"/>
     <use style="fill:#008000;stroke:#000000;stroke-width:0.5;" x="451.451355637" xlink:href="#mbbe02196b1" y="108.698409657"/>
     <use style="fill:#008000;stroke:#000000;stroke-width:0.5;" x="458.643705612" xlink:href="#mbbe02196b1" y="115.109190286"/>
     <use style="fill:#008000;stroke:#000000;stroke-width:0.5;" x="458.643705612" xlink:href="#mbbe02196b1" y="115.109190286"/>
     <use style="fill:#008000;stroke:#000000;stroke-width:0.5;" x="465.836055587" xlink:href="#mbbe02196b1" y="123.012420211"/>
     <use style="fill:#008000;stroke:#000000;stroke-width:0.5;" x="473.028405562" xlink:href="#mbbe02196b1" y="164.22797095"/>
     <use style="fill:#008000;stroke:#000000;stroke-width:0.5;" x="473.028405562" xlink:href="#mbbe02196b1" y="164.22797095"/>
     <use style="fill:#008000;stroke:#000000;stroke-width:0.5;" x="481.270231529" xlink:href="#mbbe02196b1" y="164.22797095"/>
     <use style="fill:#008000;stroke:#000000;stroke-width:0.5;" x="481.270231529" xlink:href="#mbbe02196b1" y="164.22797095"/>
     <use style="fill:#008000;stroke:#000000;stroke-width:0.5;" x="522.479361364" xlink:href="#mbbe02196b1" y="164.22797095"/>
    </g>
   </g>
   <g id="matplotlib.axis_1">
    <g id="xtick_1">
     <g id="line2d_3">
      <defs>
       <path d="
M0 0
L0 -4" id="m93b0483c22" style="stroke:#000000;stroke-width:0.5;"/>
      </defs>
      <g>
       <use style="stroke:#000000;stroke-width:0.5;" x="78.3446509625" xlink:href="#m93b0483c22" y="396.9"/>
      </g>
     </g>
     <g id="line2d_4">
      <defs>
       <path d="
M0 0
L0 4" id="m741efc42ff" style="stroke:#000000;stroke-width:0.5;"/>
      </defs>
      <g>
       <use style="stroke:#000000;stroke-width:0.5;" x="78.3446509625" xlink:href="#m741efc42ff" y="44.1"/>
      </g>
     </g>
     <g id="text_1">
      <!-- 0 -->
      <defs>
       <path d="
M31.7812 66.4062
Q24.1719 66.4062 20.3281 58.9062
Q16.5 51.4219 16.5 36.375
Q16.5 21.3906 20.3281 13.8906
Q24.1719 6.39062 31.7812 6.39062
Q39.4531 6.39062 43.2812 13.8906
Q47.125 21.3906 47.125 36.375
Q47.125 51.4219 43.2812 58.9062
Q39.4531 66.4062 31.7812 66.4062
M31.7812 74.2188
Q44.0469 74.2188 50.5156 64.5156
Q56.9844 54.8281 56.9844 36.375
Q56.9844 17.9688 50.5156 8.26562
Q44.0469 -1.42188 31.7812 -1.42188
Q19.5312 -1.42188 13.0625 8.26562
Q6.59375 17.9688 6.59375 36.375
Q6.59375 54.8281 13.0625 64.5156
Q19.5312 74.2188 31.7812 74.2188" id="DejaVuSans-30"/>
      </defs>
      <g transform="translate(75.3212134625 410.018125)scale(0.12 -0.12)">
       <use xlink:href="#DejaVuSans-30"/>
      </g>
     </g>
    </g>
    <g id="xtick_2">
     <g id="line2d_5">
      <g>
       <use style="stroke:#000000;stroke-width:0.5;" x="160.762910632" xlink:href="#m93b0483c22" y="396.9"/>
      </g>
     </g>
     <g id="line2d_6">
      <g>
       <use style="stroke:#000000;stroke-width:0.5;" x="160.762910632" xlink:href="#m741efc42ff" y="44.1"/>
      </g>
     </g>
     <g id="text_2">
      <!-- 2 -->
      <defs>
       <path d="
M19.1875 8.29688
L53.6094 8.29688
L53.6094 0
L7.32812 0
L7.32812 8.29688
Q12.9375 14.1094 22.625 23.8906
Q32.3281 33.6875 34.8125 36.5312
Q39.5469 41.8438 41.4219 45.5312
Q43.3125 49.2188 43.3125 52.7812
Q43.3125 58.5938 39.2344 62.25
Q35.1562 65.9219 28.6094 65.9219
Q23.9688 65.9219 18.8125 64.3125
Q13.6719 62.7031 7.8125 59.4219
L7.8125 69.3906
Q13.7656 71.7812 18.9375 73
Q24.125 74.2188 28.4219 74.2188
Q39.75 74.2188 46.4844 68.5469
Q53.2188 62.8906 53.2188 53.4219
Q53.2188 48.9219 51.5312 44.8906
Q49.8594 40.875 45.4062 35.4062
Q44.1875 33.9844 37.6406 27.2188
Q31.1094 20.4531 19.1875 8.29688" id="DejaVuSans-32"/>
      </defs>
      <g transform="translate(157.986035632 410.018125)scale(0.12 -0.12)">
       <use xlink:href="#DejaVuSans-32"/>
      </g>
     </g>
    </g>
    <g id="xtick_3">
     <g id="line2d_7">
      <g>
       <use style="stroke:#000000;stroke-width:0.5;" x="243.181170301" xlink:href="#m93b0483c22" y="396.9"/>
      </g>
     </g>
     <g id="line2d_8">
      <g>
       <use style="stroke:#000000;stroke-width:0.5;" x="243.181170301" xlink:href="#m741efc42ff" y="44.1"/>
      </g>
     </g>
     <g id="text_3">
      <!-- 4 -->
      <defs>
       <path d="
M37.7969 64.3125
L12.8906 25.3906
L37.7969 25.3906
z

M35.2031 72.9062
L47.6094 72.9062
L47.6094 25.3906
L58.0156 25.3906
L58.0156 17.1875
L47.6094 17.1875
L47.6094 0
L37.7969 0
L37.7969 17.1875
L4.89062 17.1875
L4.89062 26.7031
z
" id="DejaVuSans-34"/>
      </defs>
      <g transform="translate(239.993670301 410.018125)scale(0.12 -0.12)">
       <use xlink:href="#DejaVuSans-34"/>
      </g>
     </g>
    </g>
    <g id="xtick_4">
     <g id="line2d_9">
      <g>
       <use style="stroke:#000000;stroke-width:0.5;" x="325.59942997" xlink:href="#m93b0483c22" y="396.9"/>
      </g>
     </g>
     <g id="line2d_10">
      <g>
       <use style="stroke:#000000;stroke-width:0.5;" x="325.59942997" xlink:href="#m741efc42ff" y="44.1"/>
      </g>
     </g>
     <g id="text_4">
      <!-- 6 -->
      <defs>
       <path d="
M33.0156 40.375
Q26.375 40.375 22.4844 35.8281
Q18.6094 31.2969 18.6094 23.3906
Q18.6094 15.5312 22.4844 10.9531
Q26.375 6.39062 33.0156 6.39062
Q39.6562 6.39062 43.5312 10.9531
Q47.4062 15.5312 47.4062 23.3906
Q47.4062 31.2969 43.5312 35.8281
Q39.6562 40.375 33.0156 40.375
M52.5938 71.2969
L52.5938 62.3125
Q48.875 64.0625 45.0938 64.9844
Q41.3125 65.9219 37.5938 65.9219
Q27.8281 65.9219 22.6719 59.3281
Q17.5312 52.7344 16.7969 39.4062
Q19.6719 43.6562 24.0156 45.9219
Q28.375 48.1875 33.5938 48.1875
Q44.5781 48.1875 50.9531 41.5156
Q57.3281 34.8594 57.3281 23.3906
Q57.3281 12.1562 50.6875 5.35938
Q44.0469 -1.42188 33.0156 -1.42188
Q20.3594 -1.42188 13.6719 8.26562
Q6.98438 17.9688 6.98438 36.375
Q6.98438 53.6562 15.1875 63.9375
Q23.3906 74.2188 37.2031 74.2188
Q40.9219 74.2188 44.7031 73.4844
Q48.4844 72.75 52.5938 71.2969" id="DejaVuSans-36"/>
      </defs>
      <g transform="translate(322.57880497 410.018125)scale(0.12 -0.12)">
       <use xlink:href="#DejaVuSans-36"/>
      </g>
     </g>
    </g>
    <g id="xtick_5">
     <g id="line2d_11">
      <g>
       <use style="stroke:#000000;stroke-width:0.5;" x="408.01768964" xlink:href="#m93b0483c22" y="396.9"/>
      </g>
     </g>
     <g id="line2d_12">
      <g>
       <use style="stroke:#000000;stroke-width:0.5;" x="408.01768964" xlink:href="#m741efc42ff" y="44.1"/>
      </g>
     </g>
     <g id="text_5">
      <!-- 8 -->
      <defs>
       <path d="
M31.7812 34.625
Q24.75 34.625 20.7188 30.8594
Q16.7031 27.0938 16.7031 20.5156
Q16.7031 13.9219 20.7188 10.1562
Q24.75 6.39062 31.7812 6.39062
Q38.8125 6.39062 42.8594 10.1719
Q46.9219 13.9688 46.9219 20.5156
Q46.9219 27.0938 42.8906 30.8594
Q38.875 34.625 31.7812 34.625
M21.9219 38.8125
Q15.5781 40.375 12.0312 44.7188
Q8.5 49.0781 8.5 55.3281
Q8.5 64.0625 14.7188 69.1406
Q20.9531 74.2188 31.7812 74.2188
Q42.6719 74.2188 48.875 69.1406
Q55.0781 64.0625 55.0781 55.3281
Q55.0781 49.0781 51.5312 44.7188
Q48 40.375 41.7031 38.8125
Q48.8281 37.1562 52.7969 32.3125
Q56.7812 27.4844 56.7812 20.5156
Q56.7812 9.90625 50.3125 4.23438
Q43.8438 -1.42188 31.7812 -1.42188
Q19.7344 -1.42188 13.25 4.23438
Q6.78125 9.90625 6.78125 20.5156
Q6.78125 27.4844 10.7812 32.3125
Q14.7969 37.1562 21.9219 38.8125
M18.3125 54.3906
Q18.3125 48.7344 21.8438 45.5625
Q25.3906 42.3906 31.7812 42.3906
Q38.1406 42.3906 41.7188 45.5625
Q45.3125 48.7344 45.3125 54.3906
Q45.3125 60.0625 41.7188 63.2344
Q38.1406 66.4062 31.7812 66.4062
Q25.3906 66.4062 21.8438 63.2344
Q18.3125 60.0625 18.3125 54.3906" id="DejaVuSans-38"/>
      </defs>
      <g transform="translate(405.01768964 410.018125)scale(0.12 -0.12)">
       <use xlink:href="#DejaVuSans-38"/>
      </g>
     </g>
    </g>
    <g id="xtick_6">
     <g id="line2d_13">
      <g>
       <use style="stroke:#000000;stroke-width:0.5;" x="490.435949309" xlink:href="#m93b0483c22" y="396.9"/>
      </g>
     </g>
     <g id="line2d_14">
      <g>
       <use style="stroke:#000000;stroke-width:0.5;" x="490.435949309" xlink:href="#m741efc42ff" y="44.1"/>
      </g>
     </g>
     <g id="text_6">
      <!-- 10 -->
      <defs>
       <path d="
M12.4062 8.29688
L28.5156 8.29688
L28.5156 63.9219
L10.9844 60.4062
L10.9844 69.3906
L28.4219 72.9062
L38.2812 72.9062
L38.2812 8.29688
L54.3906 8.29688
L54.3906 0
L12.4062 0
z
" id="DejaVuSans-31"/>
      </defs>
      <g transform="translate(483.858449309 410.018125)scale(0.12 -0.12)">
       <use xlink:href="#DejaVuSans-31"/>
       <use x="63.623046875" xlink:href="#DejaVuSans-30"/>
      </g>
     </g>
    </g>
    <g id="text_7">
     <!-- phi -->
     <defs>
      <path d="
M18.1094 8.20312
L18.1094 -20.7969
L9.07812 -20.7969
L9.07812 54.6875
L18.1094 54.6875
L18.1094 46.3906
Q20.9531 51.2656 25.2656 53.625
Q29.5938 56 35.5938 56
Q45.5625 56 51.7812 48.0938
Q58.0156 40.1875 58.0156 27.2969
Q58.0156 14.4062 51.7812 6.48438
Q45.5625 -1.42188 35.5938 -1.42188
Q29.5938 -1.42188 25.2656 0.953125
Q20.9531 3.32812 18.1094 8.20312
M48.6875 27.2969
Q48.6875 37.2031 44.6094 42.8438
Q40.5312 48.4844 33.4062 48.4844
Q26.2656 48.4844 22.1875 42.8438
Q18.1094 37.2031 18.1094 27.2969
Q18.1094 17.3906 22.1875 11.75
Q26.2656 6.10938 33.4062 6.10938
Q40.5312 6.10938 44.6094 11.75
Q48.6875 17.3906 48.6875 27.2969" id="DejaVuSans-70"/>
      <path d="
M54.8906 33.0156
L54.8906 0
L45.9062 0
L45.9062 32.7188
Q45.9062 40.4844 42.875 44.3281
Q39.8438 48.1875 33.7969 48.1875
Q26.5156 48.1875 22.3125 43.5469
Q18.1094 38.9219 18.1094 30.9062
L18.1094 0
L9.07812 0
L9.07812 75.9844
L18.1094 75.9844
L18.1094 46.1875
Q21.3438 51.125 25.7031 53.5625
Q30.0781 56 35.7969 56
Q45.2188 56 50.0469 50.1719
Q54.8906 44.3438 54.8906 33.0156" id="DejaVuSans-68"/>
      <path d="
M9.42188 54.6875
L18.4062 54.6875
L18.4062 0
L9.42188 0
z

M9.42188 75.9844
L18.4062 75.9844
L18.4062 64.5938
L9.42188 64.5938
z
" id="DejaVuSans-69"/>
     </defs>
     <g transform="translate(291.64125 426.631875)scale(0.12 -0.12)">
      <use xlink:href="#DejaVuSans-70"/>
      <use x="63.4765625" xlink:href="#DejaVuSans-68"/>
      <use x="126.85546875" xlink:href="#DejaVuSans-69"/>
     </g>
    </g>
   </g>
   <g id="matplotlib.axis_2">
    <g id="ytick_1">
     <g id="line2d_15">
      <defs>
       <path d="
M0 0
L4 0" id="m728421d6d4" style="stroke:#000000;stroke-width:0.5;"/>
      </defs>
      <g>
       <use style="stroke:#000000;stroke-width:0.5;" x="73.125" xlink:href="#m728421d6d4" y="369.412016776"/>
      </g>
     </g>
     <g id="line2d_16">
      <defs>
       <path d="
M0 0
L-4 0" id="mcb0005524f" style="stroke:#000000;stroke-width:0.5;"/>
      </defs>
      <g>
       <use style="stroke:#000000;stroke-width:0.5;" x="526.5" xlink:href="#mcb0005524f" y="369.412016776"/>
      </g>
     </g>
     <g id="text_8">
      <!-- −0.08 -->
      <defs>
       <path d="
M10.6875 12.4062
L21 12.4062
L21 0
L10.6875 0
z
" id="DejaVuSans-2e"/>
       <path d="
M10.5938 35.5
L73.1875 35.5
L73.1875 27.2031
L10.5938 27.2031
z
" id="DejaVuSans-2212"/>
      </defs>
      <g transform="translate(34.443125 372.723266776)scale(0.12 -0.12)">
       <use xlink:href="#DejaVuSans-2212"/>
       <use x="83.7890625" xlink:href="#DejaVuSans-30"/>
       <use x="147.412109375" xlink:href="#DejaVuSans-2e"/>
       <use x="179.19921875" xlink:href="#DejaVuSans-30"/>
       <use x="242.822265625" xlink:href="#DejaVuSans-38"/>
      </g>
     </g>
    </g>
    <g id="ytick_2">
     <g id="line2d_17">
      <g>
       <use style="stroke:#000000;stroke-width:0.5;" x="73.125" xlink:href="#m728421d6d4" y="318.116005319"/>
      </g>
     </g>
     <g id="line2d_18">
      <g>
       <use style="stroke:#000000;stroke-width:0.5;" x="526.5" xlink:href="#mcb0005524f" y="318.116005319"/>
      </g>
     </g>
     <g id="text_9">
      <!-- −0.06 -->
      <g transform="translate(34.3775 321.427255319)scale(0.12 -0.12)">
       <use xlink:href="#DejaVuSans-2212"/>
       <use x="83.7890625" xlink:href="#DejaVuSans-30"/>
       <use x="147.412109375" xlink:href="#DejaVuSans-2e"/>
       <use x="179.19921875" xlink:href="#DejaVuSans-30"/>
       <use x="242.822265625" xlink:href="#DejaVuSans-36"/>
      </g>
     </g>
    </g>
    <g id="ytick_3">
     <g id="line2d_19">
      <g>
       <use style="stroke:#000000;stroke-width:0.5;" x="73.125" xlink:href="#m728421d6d4" y="266.819993863"/>
      </g>
     </g>
     <g id="line2d_20">
      <g>
       <use style="stroke:#000000;stroke-width:0.5;" x="526.5" xlink:href="#mcb0005524f" y="266.819993863"/>
      </g>
     </g>
     <g id="text_10">
      <!-- −0.04 -->
      <g transform="translate(34.295 270.131243863)scale(0.12 -0.12)">
       <use xlink:href="#DejaVuSans-2212"/>
       <use x="83.7890625" xlink:href="#DejaVuSans-30"/>
       <use x="147.412109375" xlink:href="#DejaVuSans-2e"/>
       <use x="179.19921875" xlink:href="#DejaVuSans-30"/>
       <use x="242.822265625" xlink:href="#DejaVuSans-34"/>
      </g>
     </g>
    </g>
    <g id="ytick_4">
     <g id="line2d_21">
      <g>
       <use style="stroke:#000000;stroke-width:0.5;" x="73.125" xlink:href="#m728421d6d4" y="215.523982406"/>
      </g>
     </g>
     <g id="line2d_22">
      <g>
       <use style="stroke:#000000;stroke-width:0.5;" x="526.5" xlink:href="#mcb0005524f" y="215.523982406"/>
      </g>
     </g>
     <g id="text_11">
      <!-- −0.02 -->
      <g transform="translate(34.82375 218.835232406)scale(0.12 -0.12)">
       <use xlink:href="#DejaVuSans-2212"/>
       <use x="83.7890625" xlink:href="#DejaVuSans-30"/>
       <use x="147.412109375" xlink:href="#DejaVuSans-2e"/>
       <use x="179.19921875" xlink:href="#DejaVuSans-30"/>
       <use x="242.822265625" xlink:href="#DejaVuSans-32"/>
      </g>
     </g>
    </g>
    <g id="ytick_5">
     <g id="line2d_23">
      <g>
       <use style="stroke:#000000;stroke-width:0.5;" x="73.125" xlink:href="#m728421d6d4" y="164.22797095"/>
      </g>
     </g>
     <g id="line2d_24">
      <g>
       <use style="stroke:#000000;stroke-width:0.5;" x="526.5" xlink:href="#mcb0005524f" y="164.22797095"/>
      </g>
     </g>
     <g id="text_12">
      <!-- 0.00 -->
      <g transform="translate(43.994375 167.53922095)scale(0.12 -0.12)">
       <use xlink:href="#DejaVuSans-30"/>
       <use x="63.623046875" xlink:href="#DejaVuSans-2e"/>
       <use x="95.41015625" xlink:href="#DejaVuSans-30"/>
       <use x="159.033203125" xlink:href="#DejaVuSans-30"/>
      </g>
     </g>
    </g>
    <g id="ytick_6">
     <g id="line2d_25">
      <g>
       <use style="stroke:#000000;stroke-width:0.5;" x="73.125" xlink:href="#m728421d6d4" y="112.931959493"/>
      </g>
     </g>
     <g id="line2d_26">
      <g>
       <use style="stroke:#000000;stroke-width:0.5;" x="526.5" xlink:href="#mcb0005524f" y="112.931959493"/>
      </g>
     </g>
     <g id="text_13">
      <!-- 0.02 -->
      <g transform="translate(44.399375 116.243209493)scale(0.12 -0.12)">
       <use xlink:href="#DejaVuSans-30"/>
       <use x="63.623046875" xlink:href="#DejaVuSans-2e"/>
       <use x="95.41015625" xlink:href="#DejaVuSans-30"/>
       <use x="159.033203125" xlink:href="#DejaVuSans-32"/>
      </g>
     </g>
    </g>
    <g id="ytick_7">
     <g id="line2d_27">
      <g>
       <use style="stroke:#000000;stroke-width:0.5;" x="73.125" xlink:href="#m728421d6d4" y="61.6359480365"/>
      </g>
     </g>
     <g id="line2d_28">
      <g>
       <use style="stroke:#000000;stroke-width:0.5;" x="526.5" xlink:href="#mcb0005524f" y="61.6359480365"/>
      </g>
     </g>
     <g id="text_14">
      <!-- 0.04 -->
      <g transform="translate(43.870625 64.9471980365)scale(0.12 -0.12)">
       <use xlink:href="#DejaVuSans-30"/>
       <use x="63.623046875" xlink:href="#DejaVuSans-2e"/>
       <use x="95.41015625" xlink:href="#DejaVuSans-30"/>
       <use x="159.033203125" xlink:href="#DejaVuSans-34"/>
      </g>
     </g>
    </g>
    <g id="text_15">
     <!-- velocity of Axis 1 -->
     <defs>
      <path d="
M56.2031 29.5938
L56.2031 25.2031
L14.8906 25.2031
Q15.4844 15.9219 20.4844 11.0625
Q25.4844 6.20312 34.4219 6.20312
Q39.5938 6.20312 44.4531 7.46875
Q49.3125 8.73438 54.1094 11.2812
L54.1094 2.78125
Q49.2656 0.734375 44.1875 -0.34375
Q39.1094 -1.42188 33.8906 -1.42188
Q20.7969 -1.42188 13.1562 6.1875
Q5.51562 13.8125 5.51562 26.8125
Q5.51562 40.2344 12.7656 48.1094
Q20.0156 56 32.3281 56
Q43.3594 56 49.7812 48.8906
Q56.2031 41.7969 56.2031 29.5938
M47.2188 32.2344
Q47.125 39.5938 43.0938 43.9844
Q39.0625 48.3906 32.4219 48.3906
Q24.9062 48.3906 20.3906 44.1406
Q15.875 39.8906 15.1875 32.1719
z
" id="DejaVuSans-65"/>
      <path d="
M30.6094 48.3906
Q23.3906 48.3906 19.1875 42.75
Q14.9844 37.1094 14.9844 27.2969
Q14.9844 17.4844 19.1562 11.8438
Q23.3438 6.20312 30.6094 6.20312
Q37.7969 6.20312 41.9844 11.8594
Q46.1875 17.5312 46.1875 27.2969
Q46.1875 37.0156 41.9844 42.7031
Q37.7969 48.3906 30.6094 48.3906
M30.6094 56
Q42.3281 56 49.0156 48.375
Q55.7188 40.7656 55.7188 27.2969
Q55.7188 13.875 49.0156 6.21875
Q42.3281 -1.42188 30.6094 -1.42188
Q18.8438 -1.42188 12.1719 6.21875
Q5.51562 13.875 5.51562 27.2969
Q5.51562 40.7656 12.1719 48.375
Q18.8438 56 30.6094 56" id="DejaVuSans-6f"/>
      <path d="
M9.42188 75.9844
L18.4062 75.9844
L18.4062 0
L9.42188 0
z
" id="DejaVuSans-6c"/>
      <path id="DejaVuSans-20"/>
      <path d="
M32.1719 -5.07812
Q28.375 -14.8438 24.75 -17.8125
Q21.1406 -20.7969 15.0938 -20.7969
L7.90625 -20.7969
L7.90625 -13.2812
L13.1875 -13.2812
Q16.8906 -13.2812 18.9375 -11.5156
Q21 -9.76562 23.4844 -3.21875
L25.0938 0.875
L2.98438 54.6875
L12.5 54.6875
L29.5938 11.9219
L46.6875 54.6875
L56.2031 54.6875
z
" id="DejaVuSans-79"/>
      <path d="
M34.1875 63.1875
L20.7969 26.9062
L47.6094 26.9062
z

M28.6094 72.9062
L39.7969 72.9062
L67.5781 0
L57.3281 0
L50.6875 18.7031
L17.8281 18.7031
L11.1875 0
L0.78125 0
z
" id="DejaVuSans-41"/>
      <path d="
M37.1094 75.9844
L37.1094 68.5
L28.5156 68.5
Q23.6875 68.5 21.7969 66.5469
Q19.9219 64.5938 19.9219 59.5156
L19.9219 54.6875
L34.7188 54.6875
L34.7188 47.7031
L19.9219 47.7031
L19.9219 0
L10.8906 0
L10.8906 47.7031
L2.29688 47.7031
L2.29688 54.6875
L10.8906 54.6875
L10.8906 58.5
Q10.8906 67.625 15.1406 71.7969
Q19.3906 75.9844 28.6094 75.9844
z
" id="DejaVuSans-66"/>
      <path d="
M18.3125 70.2188
L18.3125 54.6875
L36.8125 54.6875
L36.8125 47.7031
L18.3125 47.7031
L18.3125 18.0156
Q18.3125 11.3281 20.1406 9.42188
Q21.9688 7.51562 27.5938 7.51562
L36.8125 7.51562
L36.8125 0
L27.5938 0
Q17.1875 0 13.2344 3.875
Q9.28125 7.76562 9.28125 18.0156
L9.28125 47.7031
L2.6875 47.7031
L2.6875 54.6875
L9.28125 54.6875
L9.28125 70.2188
z
" id="DejaVuSans-74"/>
      <path d="
M2.98438 54.6875
L12.5 54.6875
L29.5938 8.79688
L46.6875 54.6875
L56.2031 54.6875
L35.6875 0
L23.4844 0
z
" id="DejaVuSans-76"/>
      <path d="
M48.7812 52.5938
L48.7812 44.1875
Q44.9688 46.2969 41.1406 47.3438
Q37.3125 48.3906 33.4062 48.3906
Q24.6562 48.3906 19.8125 42.8438
Q14.9844 37.3125 14.9844 27.2969
Q14.9844 17.2812 19.8125 11.7344
Q24.6562 6.20312 33.4062 6.20312
Q37.3125 6.20312 41.1406 7.25
Q44.9688 8.29688 48.7812 10.4062
L48.7812 2.09375
Q45.0156 0.34375 40.9844 -0.53125
Q36.9688 -1.42188 32.4219 -1.42188
Q20.0625 -1.42188 12.7812 6.34375
Q5.51562 14.1094 5.51562 27.2969
Q5.51562 40.6719 12.8594 48.3281
Q20.2188 56 33.0156 56
Q37.1562 56 41.1094 55.1406
Q45.0625 54.2969 48.7812 52.5938" id="DejaVuSans-63"/>
      <path d="
M44.2812 53.0781
L44.2812 44.5781
Q40.4844 46.5312 36.375 47.5
Q32.2812 48.4844 27.875 48.4844
Q21.1875 48.4844 17.8438 46.4375
Q14.5 44.3906 14.5 40.2812
Q14.5 37.1562 16.8906 35.375
Q19.2812 33.5938 26.5156 31.9844
L29.5938 31.2969
Q39.1562 29.25 43.1875 25.5156
Q47.2188 21.7812 47.2188 15.0938
Q47.2188 7.46875 41.1875 3.01562
Q35.1562 -1.42188 24.6094 -1.42188
Q20.2188 -1.42188 15.4531 -0.5625
Q10.6875 0.296875 5.42188 2
L5.42188 11.2812
Q10.4062 8.6875 15.2344 7.39062
Q20.0625 6.10938 24.8125 6.10938
Q31.1562 6.10938 34.5625 8.28125
Q37.9844 10.4531 37.9844 14.4062
Q37.9844 18.0625 35.5156 20.0156
Q33.0625 21.9688 24.7031 23.7812
L21.5781 24.5156
Q13.2344 26.2656 9.51562 29.9062
Q5.8125 33.5469 5.8125 39.8906
Q5.8125 47.6094 11.2812 51.7969
Q16.75 56 26.8125 56
Q31.7812 56 36.1719 55.2656
Q40.5781 54.5469 44.2812 53.0781" id="DejaVuSans-73"/>
      <path d="
M54.8906 54.6875
L35.1094 28.0781
L55.9062 0
L45.3125 0
L29.3906 21.4844
L13.4844 0
L2.875 0
L24.125 28.6094
L4.6875 54.6875
L15.2812 54.6875
L29.7812 35.2031
L44.2812 54.6875
z
" id="DejaVuSans-78"/>
     </defs>
     <g transform="translate(26.799375 271.16625)rotate(-90.0)scale(0.12 -0.12)">
      <use xlink:href="#DejaVuSans-76"/>
      <use x="59.1796875" xlink:href="#DejaVuSans-65"/>
      <use x="120.703125" xlink:href="#DejaVuSans-6c"/>
      <use x="148.486328125" xlink:href="#DejaVuSans-6f"/>
      <use x="209.66796875" xlink:href="#DejaVuSans-63"/>
      <use x="264.6484375" xlink:href="#DejaVuSans-69"/>
      <use x="292.431640625" xlink:href="#DejaVuSans-74"/>
      <use x="331.640625" xlink:href="#DejaVuSans-79"/>
      <use x="390.8203125" xlink:href="#DejaVuSans-20"/>
      <use x="422.607421875" xlink:href="#DejaVuSans-6f"/>
      <use x="483.7890625" xlink:href="#DejaVuSans-66"/>
      <use x="518.994140625" xlink:href="#DejaVuSans-20"/>
      <use x="550.78125" xlink:href="#DejaVuSans-41"/>
      <use x="619.189453125" xlink:href="#DejaVuSans-78"/>
      <use x="678.369140625" xlink:href="#DejaVuSans-69"/>
      <use x="706.15234375" xlink:href="#DejaVuSans-73"/>
      <use x="758.251953125" xlink:href="#DejaVuSans-20"/>
      <use x="790.0390625" xlink:href="#DejaVuSans-31"/>
     </g>
    </g>
   </g>
   <g id="patch_3">
    <path d="
M73.125 44.1
L526.5 44.1" style="fill:none;stroke:#000000;"/>
   </g>
   <g id="patch_4">
    <path d="
M526.5 396.9
L526.5 44.1" style="fill:none;stroke:#000000;"/>
   </g>
   <g id="patch_5">
    <path d="
M73.125 396.9
L526.5 396.9" style="fill:none;stroke:#000000;"/>
   </g>
   <g id="patch_6">
    <path d="
M73.125 396.9
L73.125 44.1" style="fill:none;stroke:#000000;"/>
   </g>
  </g>
 </g>
 <defs>
  <clipPath id="p5873ec822d">
   <rect height="352.8" width="453.375" x="73.125" y="44.1"/>
  </clipPath>
 </defs>
</svg>
